<?xml version="1.0" encoding="UTF-8" standalone="no"?>
<!DOCTYPE svg PUBLIC "-//W3C//DTD SVG 1.1//EN"
 "http://www.w3.org/Graphics/SVG/1.1/DTD/svg11.dtd">
<!-- Generated by graphviz version 8.1.0 (20230707.0739)
 -->
<!-- Title: models_diagram Pages: 1 -->
<svg width="1702pt" height="498pt"
 viewBox="0.00 0.00 1702.00 497.50" xmlns="http://www.w3.org/2000/svg" xmlns:xlink="http://www.w3.org/1999/xlink">
<g id="graph0" class="graph" transform="scale(1 1) rotate(0) translate(4 493.5)">
<title>models_diagram</title>
<polygon fill="none" stroke="none" points="-4,4 -4,-493.5 1698,-493.5 1698,4 -4,4"/>
<!-- Admin -->
<g id="node1" class="node">
<title>Admin</title>
<path fill="none" stroke="black" d="M12,-299.75C12,-299.75 316,-299.75 316,-299.75 322,-299.75 328,-305.75 328,-311.75 328,-311.75 328,-468.75 328,-468.75 328,-474.75 322,-480.75 316,-480.75 316,-480.75 12,-480.75 12,-480.75 6,-480.75 0,-474.75 0,-468.75 0,-468.75 0,-311.75 0,-311.75 0,-305.75 6,-299.75 12,-299.75"/>
<text text-anchor="middle" x="164" y="-463.45" font-family="Times,serif" font-size="14.00">Admin</text>
<polyline fill="none" stroke="black" points="0,-456.25 328,-456.25"/>
<text text-anchor="start" x="8" y="-438.95" font-family="Times,serif" font-size="14.00">name :character varying</text>
<text text-anchor="start" x="8" y="-422.45" font-family="Times,serif" font-size="14.00">email :character varying</text>
<text text-anchor="start" x="8" y="-405.95" font-family="Times,serif" font-size="14.00">encrypted_password :character varying</text>
<text text-anchor="start" x="8" y="-389.45" font-family="Times,serif" font-size="14.00">reset_password_token :character varying</text>
<text text-anchor="start" x="8" y="-372.95" font-family="Times,serif" font-size="14.00">reset_password_sent_at :timestamp(6) without time zone</text>
<text text-anchor="start" x="8" y="-356.45" font-family="Times,serif" font-size="14.00">remember_created_at :timestamp(6) without time zone</text>
<text text-anchor="start" x="8" y="-339.95" font-family="Times,serif" font-size="14.00">created_at :timestamp(6) without time zone</text>
<text text-anchor="start" x="8" y="-323.45" font-family="Times,serif" font-size="14.00">updated_at :timestamp(6) without time zone</text>
<text text-anchor="start" x="8" y="-306.95" font-family="Times,serif" font-size="14.00">id :uuid</text>
</g>
<!-- ApplicationRecord -->
<g id="node2" class="node">
<title>ApplicationRecord</title>
<ellipse fill="none" stroke="black" cx="427" cy="-390.25" rx="81.04" ry="18"/>
<text text-anchor="middle" x="427" y="-385.2" font-family="Times,serif" font-size="14.00">ApplicationRecord</text>
</g>
<!-- Author -->
<g id="node3" class="node">
<title>Author</title>
<path fill="none" stroke="black" d="M538.5,-291.5C538.5,-291.5 773.5,-291.5 773.5,-291.5 779.5,-291.5 785.5,-297.5 785.5,-303.5 785.5,-303.5 785.5,-477 785.5,-477 785.5,-483 779.5,-489 773.5,-489 773.5,-489 538.5,-489 538.5,-489 532.5,-489 526.5,-483 526.5,-477 526.5,-477 526.5,-303.5 526.5,-303.5 526.5,-297.5 532.5,-291.5 538.5,-291.5"/>
<text text-anchor="middle" x="656" y="-471.7" font-family="Times,serif" font-size="14.00">Author</text>
<polyline fill="none" stroke="black" points="526.5,-464.5 785.5,-464.5"/>
<text text-anchor="start" x="534.5" y="-447.2" font-family="Times,serif" font-size="14.00">updated_at :timestamp(6) without time zone</text>
<text text-anchor="start" x="534.5" y="-430.7" font-family="Times,serif" font-size="14.00">name :character varying</text>
<text text-anchor="start" x="534.5" y="-414.2" font-family="Times,serif" font-size="14.00">description :character varying</text>
<text text-anchor="start" x="534.5" y="-397.7" font-family="Times,serif" font-size="14.00">facebook_profile_url :character varying</text>
<text text-anchor="start" x="534.5" y="-381.2" font-family="Times,serif" font-size="14.00">instagram_profile_url :character varying</text>
<text text-anchor="start" x="534.5" y="-364.7" font-family="Times,serif" font-size="14.00">twitter_profile_url :character varying</text>
<text text-anchor="start" x="534.5" y="-348.2" font-family="Times,serif" font-size="14.00">linkedin_profile_url :character varying</text>
<text text-anchor="start" x="534.5" y="-331.7" font-family="Times,serif" font-size="14.00">youtube_profile_url :character varying</text>
<text text-anchor="start" x="534.5" y="-315.2" font-family="Times,serif" font-size="14.00">created_at :timestamp(6) without time zone</text>
<text text-anchor="start" x="534.5" y="-298.7" font-family="Times,serif" font-size="14.00">id :uuid</text>
</g>
<!-- Post -->
<g id="node6" class="node">
<title>Post</title>
<path fill="none" stroke="black" d="M963.5,-89C963.5,-89 1198.5,-89 1198.5,-89 1204.5,-89 1210.5,-95 1210.5,-101 1210.5,-101 1210.5,-241.5 1210.5,-241.5 1210.5,-247.5 1204.5,-253.5 1198.5,-253.5 1198.5,-253.5 963.5,-253.5 963.5,-253.5 957.5,-253.5 951.5,-247.5 951.5,-241.5 951.5,-241.5 951.5,-101 951.5,-101 951.5,-95 957.5,-89 963.5,-89"/>
<text text-anchor="middle" x="1081" y="-236.2" font-family="Times,serif" font-size="14.00">Post</text>
<polyline fill="none" stroke="black" points="951.5,-229 1210.5,-229"/>
<text text-anchor="start" x="959.5" y="-211.7" font-family="Times,serif" font-size="14.00">author_id :uuid</text>
<text text-anchor="start" x="959.5" y="-195.2" font-family="Times,serif" font-size="14.00">title :character varying</text>
<text text-anchor="start" x="959.5" y="-178.7" font-family="Times,serif" font-size="14.00">body :text</text>
<text text-anchor="start" x="959.5" y="-162.2" font-family="Times,serif" font-size="14.00">created_at :timestamp(6) without time zone</text>
<text text-anchor="start" x="959.5" y="-145.7" font-family="Times,serif" font-size="14.00">updated_at :timestamp(6) without time zone</text>
<text text-anchor="start" x="959.5" y="-129.2" font-family="Times,serif" font-size="14.00">slug :character varying</text>
<text text-anchor="start" x="959.5" y="-112.7" font-family="Times,serif" font-size="14.00">category_id :uuid</text>
<text text-anchor="start" x="959.5" y="-96.2" font-family="Times,serif" font-size="14.00">id :uuid</text>
</g>
<!-- Author&#45;&gt;Post -->
<g id="edge1" class="edge">
<title>Author&#45;&gt;Post</title>
<path fill="none" stroke="#956177" d="M794.05,-325.09C839.87,-303.19 890.93,-278.13 937,-254 938.97,-252.97 940.94,-251.93 942.93,-250.88"/>
<polygon fill="#956177" stroke="#956177" points="794.28,-324.98 783.32,-325.23 789.77,-327.13 785.26,-329.29 785.26,-329.29 785.26,-329.29 789.77,-327.13 787.2,-333.35 794.28,-324.98 794.28,-324.98"/>
<polygon fill="#956177" stroke="#956177" points="942.88,-250.9 953.82,-250.17 947.29,-248.55 951.7,-246.2 951.7,-246.2 951.7,-246.2 947.29,-248.55 949.59,-242.23 942.88,-250.9 942.88,-250.9"/>
</g>
<!-- ActiveStorage::Attachment -->
<g id="node8" class="node">
<title>ActiveStorage::Attachment</title>
<ellipse fill="none" stroke="black" cx="796" cy="-18" rx="112.26" ry="18"/>
<text text-anchor="middle" x="796" y="-12.95" font-family="Times,serif" font-size="14.00">ActiveStorage::Attachment</text>
</g>
<!-- Author&#45;&gt;ActiveStorage::Attachment -->
<g id="edge2" class="edge">
<title>Author&#45;&gt;ActiveStorage::Attachment</title>
<path fill="none" stroke="#4fc5e9" d="M520.17,-294.22C509.65,-281.87 500.51,-268.44 493.75,-254 462.56,-187.39 447.94,-146.05 493.75,-88.5 518.39,-57.55 614.35,-39.23 691.63,-29.24"/>
<polygon fill="#4fc5e9" stroke="#4fc5e9" points="519.88,-293.89 523.15,-304.36 523.2,-297.63 526.52,-301.37 526.52,-301.37 526.52,-301.37 523.2,-297.63 529.88,-298.39 519.88,-293.89 519.88,-293.89"/>
<polygon fill="#4fc5e9" stroke="#4fc5e9" points="691.51,-29.25 701.99,-32.47 696.47,-28.63 701.43,-28 701.43,-28 701.43,-28 696.47,-28.63 700.87,-23.54 691.51,-29.25 691.51,-29.25"/>
<text text-anchor="middle" x="564.12" y="-166.2" font-family="Times,serif" font-size="14.00">avatar_image_attachment</text>
</g>
<!-- ActiveStorage::Blob -->
<g id="node9" class="node">
<title>ActiveStorage::Blob</title>
<ellipse fill="none" stroke="black" cx="1081" cy="-18" rx="86.67" ry="18"/>
<text text-anchor="middle" x="1081" y="-12.95" font-family="Times,serif" font-size="14.00">ActiveStorage::Blob</text>
</g>
<!-- Author&#45;&gt;ActiveStorage::Blob -->
<g id="edge3" class="edge">
<title>Author&#45;&gt;ActiveStorage::Blob</title>
<path fill="none" stroke="#718850" d="M646.85,-281.71C643,-207.22 644.07,-116.59 668.75,-88.5 690.02,-64.29 880.13,-40.23 994.62,-27.76"/>
<polygon fill="#718850" stroke="#718850" points="646.85,-281.66 642.9,-291.89 647.12,-286.65 647.4,-291.64 647.4,-291.64 647.4,-291.64 647.12,-286.65 651.89,-291.4 646.85,-281.66 646.85,-281.66"/>
<polygon fill="#718850" stroke="#718850" points="994.49,-27.77 1004.92,-31.17 999.46,-27.23 1004.44,-26.7 1004.44,-26.7 1004.44,-26.7 999.46,-27.23 1003.95,-22.22 994.49,-27.77 994.49,-27.77"/>
<text text-anchor="middle" x="721.12" y="-166.2" font-family="Times,serif" font-size="14.00">avatar_image_blob</text>
</g>
<!-- Category -->
<g id="node4" class="node">
<title>Category</title>
<path fill="none" stroke="black" d="M963.5,-332.75C963.5,-332.75 1198.5,-332.75 1198.5,-332.75 1204.5,-332.75 1210.5,-338.75 1210.5,-344.75 1210.5,-344.75 1210.5,-435.75 1210.5,-435.75 1210.5,-441.75 1204.5,-447.75 1198.5,-447.75 1198.5,-447.75 963.5,-447.75 963.5,-447.75 957.5,-447.75 951.5,-441.75 951.5,-435.75 951.5,-435.75 951.5,-344.75 951.5,-344.75 951.5,-338.75 957.5,-332.75 963.5,-332.75"/>
<text text-anchor="middle" x="1081" y="-430.45" font-family="Times,serif" font-size="14.00">Category</text>
<polyline fill="none" stroke="black" points="951.5,-423.25 1210.5,-423.25"/>
<text text-anchor="start" x="959.5" y="-405.95" font-family="Times,serif" font-size="14.00">id :uuid</text>
<text text-anchor="start" x="959.5" y="-389.45" font-family="Times,serif" font-size="14.00">name :character varying</text>
<text text-anchor="start" x="959.5" y="-372.95" font-family="Times,serif" font-size="14.00">created_at :timestamp(6) without time zone</text>
<text text-anchor="start" x="959.5" y="-356.45" font-family="Times,serif" font-size="14.00">updated_at :timestamp(6) without time zone</text>
<text text-anchor="start" x="959.5" y="-339.95" font-family="Times,serif" font-size="14.00">description :text</text>
</g>
<!-- Category&#45;&gt;Post -->
<g id="edge4" class="edge">
<title>Category&#45;&gt;Post</title>
<path fill="none" stroke="#4bd6da" d="M1081,-322.92C1081,-304.05 1081,-283.16 1081,-263.1"/>
<polygon fill="#4bd6da" stroke="#4bd6da" points="1081,-322.8 1076.5,-332.8 1081,-327.8 1081,-332.8 1081,-332.8 1081,-332.8 1081,-327.8 1085.5,-332.8 1081,-322.8 1081,-322.8"/>
<polygon fill="#4bd6da" stroke="#4bd6da" points="1081,-263.34 1085.5,-253.34 1081,-258.34 1081,-253.34 1081,-253.34 1081,-253.34 1081,-258.34 1076.5,-253.34 1081,-263.34 1081,-263.34"/>
</g>
<!-- Category&#45;&gt;ActiveStorage::Attachment -->
<g id="edge5" class="edge">
<title>Category&#45;&gt;ActiveStorage::Attachment</title>
<path fill="none" stroke="#669fb0" d="M942.3,-354.4C890.27,-333.99 836.18,-302.36 804.75,-254 762.86,-189.56 777.85,-92.81 788.72,-46.12"/>
<polygon fill="#669fb0" stroke="#669fb0" points="942.3,-354.4 950.04,-362.16 946.97,-356.17 951.64,-357.95 951.64,-357.95 951.64,-357.95 946.97,-356.17 953.25,-353.75 942.3,-354.4 942.3,-354.4"/>
<polygon fill="#669fb0" stroke="#669fb0" points="788.71,-46.13 795.45,-37.49 789.9,-41.28 791.08,-36.42 791.08,-36.42 791.08,-36.42 789.9,-41.28 786.71,-35.35 788.71,-46.13 788.71,-46.13"/>
<text text-anchor="middle" x="873.62" y="-166.2" font-family="Times,serif" font-size="14.00">cover_image_attachment</text>
</g>
<!-- Category&#45;&gt;ActiveStorage::Blob -->
<g id="edge6" class="edge">
<title>Category&#45;&gt;ActiveStorage::Blob</title>
<path fill="none" stroke="#0cab74" d="M1166.48,-326.15C1187.66,-305.73 1207.56,-281.23 1219,-254 1247.49,-186.19 1246.39,-156.76 1219,-88.5 1207.87,-60.76 1180.29,-44.01 1152.69,-33.93"/>
<polygon fill="#0cab74" stroke="#0cab74" points="1166.56,-326.08 1156.19,-329.64 1162.91,-329.5 1159.26,-332.92 1159.26,-332.92 1159.26,-332.92 1162.91,-329.5 1162.34,-336.21 1166.56,-326.08 1166.56,-326.08"/>
<polygon fill="#0cab74" stroke="#0cab74" points="1152.82,-33.97 1144.8,-26.49 1148.09,-32.36 1143.35,-30.76 1143.35,-30.76 1143.35,-30.76 1148.09,-32.36 1141.91,-35.02 1152.82,-33.97 1152.82,-33.97"/>
<text text-anchor="middle" x="1290.62" y="-166.2" font-family="Times,serif" font-size="14.00">cover_image_blob</text>
</g>
<!-- Comment -->
<g id="node5" class="node">
<title>Comment</title>
<path fill="none" stroke="black" d="M1342.5,-324.5C1342.5,-324.5 1577.5,-324.5 1577.5,-324.5 1583.5,-324.5 1589.5,-330.5 1589.5,-336.5 1589.5,-336.5 1589.5,-444 1589.5,-444 1589.5,-450 1583.5,-456 1577.5,-456 1577.5,-456 1342.5,-456 1342.5,-456 1336.5,-456 1330.5,-450 1330.5,-444 1330.5,-444 1330.5,-336.5 1330.5,-336.5 1330.5,-330.5 1336.5,-324.5 1342.5,-324.5"/>
<text text-anchor="middle" x="1460" y="-438.7" font-family="Times,serif" font-size="14.00">Comment</text>
<polyline fill="none" stroke="black" points="1330.5,-431.5 1589.5,-431.5"/>
<text text-anchor="start" x="1338.5" y="-414.2" font-family="Times,serif" font-size="14.00">id :uuid</text>
<text text-anchor="start" x="1338.5" y="-397.7" font-family="Times,serif" font-size="14.00">user_id :uuid</text>
<text text-anchor="start" x="1338.5" y="-381.2" font-family="Times,serif" font-size="14.00">post_id :uuid</text>
<text text-anchor="start" x="1338.5" y="-364.7" font-family="Times,serif" font-size="14.00">body :text</text>
<text text-anchor="start" x="1338.5" y="-348.2" font-family="Times,serif" font-size="14.00">created_at :timestamp(6) without time zone</text>
<text text-anchor="start" x="1338.5" y="-331.7" font-family="Times,serif" font-size="14.00">updated_at :timestamp(6) without time zone</text>
</g>
<!-- Comment&#45;&gt;Post -->
<g id="edge8" class="edge">
<title>Comment&#45;&gt;Post</title>
<path fill="none" stroke="#ec866c" d="M1338.42,-319.64C1300.27,-297.79 1257.89,-273.53 1218.71,-251.1"/>
<polygon fill="#ec866c" stroke="#ec866c" points="1338.38,-319.61 1344.82,-328.49 1342.72,-322.1 1347.06,-324.58 1347.06,-324.58 1347.06,-324.58 1342.72,-322.1 1349.29,-320.68 1338.38,-319.61 1338.38,-319.61"/>
<polygon fill="#ec866c" stroke="#ec866c" points="1219.08,-251.31 1212.64,-242.43 1214.74,-248.82 1210.4,-246.34 1210.4,-246.34 1210.4,-246.34 1214.74,-248.82 1208.16,-250.24 1219.08,-251.31 1219.08,-251.31"/>
</g>
<!-- User -->
<g id="node7" class="node">
<title>User</title>
<path fill="none" stroke="black" d="M1378,-89C1378,-89 1682,-89 1682,-89 1688,-89 1694,-95 1694,-101 1694,-101 1694,-241.5 1694,-241.5 1694,-247.5 1688,-253.5 1682,-253.5 1682,-253.5 1378,-253.5 1378,-253.5 1372,-253.5 1366,-247.5 1366,-241.5 1366,-241.5 1366,-101 1366,-101 1366,-95 1372,-89 1378,-89"/>
<text text-anchor="middle" x="1530" y="-236.2" font-family="Times,serif" font-size="14.00">User</text>
<polyline fill="none" stroke="black" points="1366,-229 1694,-229"/>
<text text-anchor="start" x="1374" y="-211.7" font-family="Times,serif" font-size="14.00">updated_at :timestamp(6) without time zone</text>
<text text-anchor="start" x="1374" y="-195.2" font-family="Times,serif" font-size="14.00">email :character varying</text>
<text text-anchor="start" x="1374" y="-178.7" font-family="Times,serif" font-size="14.00">encrypted_password :character varying</text>
<text text-anchor="start" x="1374" y="-162.2" font-family="Times,serif" font-size="14.00">reset_password_token :character varying</text>
<text text-anchor="start" x="1374" y="-145.7" font-family="Times,serif" font-size="14.00">reset_password_sent_at :timestamp(6) without time zone</text>
<text text-anchor="start" x="1374" y="-129.2" font-family="Times,serif" font-size="14.00">remember_created_at :timestamp(6) without time zone</text>
<text text-anchor="start" x="1374" y="-112.7" font-family="Times,serif" font-size="14.00">created_at :timestamp(6) without time zone</text>
<text text-anchor="start" x="1374" y="-96.2" font-family="Times,serif" font-size="14.00">id :uuid</text>
</g>
<!-- Comment&#45;&gt;User -->
<g id="edge7" class="edge">
<title>Comment&#45;&gt;User</title>
<path fill="none" stroke="#ba05d9" d="M1483.82,-315.4C1489.3,-298.43 1495.18,-280.18 1500.86,-262.6"/>
<polygon fill="#ba05d9" stroke="#ba05d9" points="1483.88,-315.21 1476.53,-323.35 1482.35,-319.97 1480.81,-324.73 1480.81,-324.73 1480.81,-324.73 1482.35,-319.97 1485.1,-326.11 1483.88,-315.21 1483.88,-315.21"/>
<polygon fill="#ba05d9" stroke="#ba05d9" points="1500.73,-262.99 1508.08,-254.85 1502.26,-258.23 1503.8,-253.47 1503.8,-253.47 1503.8,-253.47 1502.26,-258.23 1499.52,-252.09 1500.73,-262.99 1500.73,-262.99"/>
</g>
<!-- Post&#45;&gt;ActiveStorage::Attachment -->
<g id="edge9" class="edge">
<title>Post&#45;&gt;ActiveStorage::Attachment</title>
<path fill="none" stroke="#0c3d59" d="M942.92,-91.65C940.93,-90.59 938.96,-89.54 937,-88.5 904.79,-71.44 867.82,-53.26 839.81,-39.78"/>
<polygon fill="#0c3d59" stroke="#0c3d59" points="942.87,-91.62 949.54,-100.32 947.27,-93.99 951.67,-96.36 951.67,-96.36 951.67,-96.36 947.27,-93.99 953.8,-92.4 942.87,-91.62 942.87,-91.62"/>
<polygon fill="#0c3d59" stroke="#0c3d59" points="840.07,-39.9 833,-31.52 835.56,-37.74 831.05,-35.58 831.05,-35.58 831.05,-35.58 835.56,-37.74 829.11,-39.63 840.07,-39.9 840.07,-39.9"/>
<text text-anchor="middle" x="967.62" y="-57.2" font-family="Times,serif" font-size="14.00">cover_image_attachment</text>
</g>
<!-- Post&#45;&gt;ActiveStorage::Blob -->
<g id="edge10" class="edge">
<title>Post&#45;&gt;ActiveStorage::Blob</title>
<path fill="none" stroke="#c2de4c" d="M1081,-79.49C1081,-67.35 1081,-55.76 1081,-46.03"/>
<polygon fill="#c2de4c" stroke="#c2de4c" points="1081,-79.31 1076.5,-89.31 1081,-84.31 1081,-89.31 1081,-89.31 1081,-89.31 1081,-84.31 1085.5,-89.31 1081,-79.31 1081,-79.31"/>
<polygon fill="#c2de4c" stroke="#c2de4c" points="1081,-46.26 1085.5,-36.26 1081,-41.26 1081,-36.26 1081,-36.26 1081,-36.26 1081,-41.26 1076.5,-36.26 1081,-46.26 1081,-46.26"/>
<text text-anchor="middle" x="1131.62" y="-57.2" font-family="Times,serif" font-size="14.00">cover_image_blob</text>
</g>
</g>
</svg>
