<?xml version="1.0" encoding="UTF-8" standalone="no"?>
<!DOCTYPE svg PUBLIC "-//W3C//DTD SVG 1.1//EN"
 "http://www.w3.org/Graphics/SVG/1.1/DTD/svg11.dtd">
<!-- Generated by graphviz version 8.1.0 (20230707.0739)
 -->
<!-- Title: models_diagram Pages: 1 -->
<svg width="1235pt" height="717pt"
 viewBox="0.00 0.00 1235.28 716.50" xmlns="http://www.w3.org/2000/svg" xmlns:xlink="http://www.w3.org/1999/xlink">
<g id="graph0" class="graph" transform="scale(1 1) rotate(0) translate(4 712.5)">
<title>models_diagram</title>
<polygon fill="none" stroke="none" points="-4,4 -4,-712.5 1231.28,-712.5 1231.28,4 -4,4"/>
<!-- Admin -->
<g id="node1" class="node">
<title>Admin</title>
<path fill="none" stroke="black" d="M374.28,-527C374.28,-527 678.28,-527 678.28,-527 684.28,-527 690.28,-533 690.28,-539 690.28,-539 690.28,-696 690.28,-696 690.28,-702 684.28,-708 678.28,-708 678.28,-708 374.28,-708 374.28,-708 368.28,-708 362.28,-702 362.28,-696 362.28,-696 362.28,-539 362.28,-539 362.28,-533 368.28,-527 374.28,-527"/>
<text text-anchor="middle" x="526.28" y="-690.7" font-family="Times,serif" font-size="14.00">Admin</text>
<polyline fill="none" stroke="black" points="362.28,-683.5 690.28,-683.5"/>
<text text-anchor="start" x="370.28" y="-666.2" font-family="Times,serif" font-size="14.00">name :character varying</text>
<text text-anchor="start" x="370.28" y="-649.7" font-family="Times,serif" font-size="14.00">email :character varying</text>
<text text-anchor="start" x="370.28" y="-633.2" font-family="Times,serif" font-size="14.00">encrypted_password :character varying</text>
<text text-anchor="start" x="370.28" y="-616.7" font-family="Times,serif" font-size="14.00">reset_password_token :character varying</text>
<text text-anchor="start" x="370.28" y="-600.2" font-family="Times,serif" font-size="14.00">reset_password_sent_at :timestamp(6) without time zone</text>
<text text-anchor="start" x="370.28" y="-583.7" font-family="Times,serif" font-size="14.00">remember_created_at :timestamp(6) without time zone</text>
<text text-anchor="start" x="370.28" y="-567.2" font-family="Times,serif" font-size="14.00">created_at :timestamp(6) without time zone</text>
<text text-anchor="start" x="370.28" y="-550.7" font-family="Times,serif" font-size="14.00">updated_at :timestamp(6) without time zone</text>
<text text-anchor="start" x="370.28" y="-534.2" font-family="Times,serif" font-size="14.00">id :uuid</text>
</g>
<!-- ApplicationRecord -->
<g id="node2" class="node">
<title>ApplicationRecord</title>
<ellipse fill="none" stroke="black" cx="789.28" cy="-617.5" rx="81.04" ry="18"/>
<text text-anchor="middle" x="789.28" y="-612.45" font-family="Times,serif" font-size="14.00">ApplicationRecord</text>
</g>
<!-- Author -->
<g id="node3" class="node">
<title>Author</title>
<path fill="none" stroke="black" d="M35.78,-291.5C35.78,-291.5 270.78,-291.5 270.78,-291.5 276.78,-291.5 282.78,-297.5 282.78,-303.5 282.78,-303.5 282.78,-477 282.78,-477 282.78,-483 276.78,-489 270.78,-489 270.78,-489 35.78,-489 35.78,-489 29.78,-489 23.78,-483 23.78,-477 23.78,-477 23.78,-303.5 23.78,-303.5 23.78,-297.5 29.78,-291.5 35.78,-291.5"/>
<text text-anchor="middle" x="153.28" y="-471.7" font-family="Times,serif" font-size="14.00">Author</text>
<polyline fill="none" stroke="black" points="23.78,-464.5 282.78,-464.5"/>
<text text-anchor="start" x="31.78" y="-447.2" font-family="Times,serif" font-size="14.00">updated_at :timestamp(6) without time zone</text>
<text text-anchor="start" x="31.78" y="-430.7" font-family="Times,serif" font-size="14.00">name :character varying</text>
<text text-anchor="start" x="31.78" y="-414.2" font-family="Times,serif" font-size="14.00">description :character varying</text>
<text text-anchor="start" x="31.78" y="-397.7" font-family="Times,serif" font-size="14.00">facebook_profile_url :character varying</text>
<text text-anchor="start" x="31.78" y="-381.2" font-family="Times,serif" font-size="14.00">instagram_profile_url :character varying</text>
<text text-anchor="start" x="31.78" y="-364.7" font-family="Times,serif" font-size="14.00">twitter_profile_url :character varying</text>
<text text-anchor="start" x="31.78" y="-348.2" font-family="Times,serif" font-size="14.00">linkedin_profile_url :character varying</text>
<text text-anchor="start" x="31.78" y="-331.7" font-family="Times,serif" font-size="14.00">youtube_profile_url :character varying</text>
<text text-anchor="start" x="31.78" y="-315.2" font-family="Times,serif" font-size="14.00">created_at :timestamp(6) without time zone</text>
<text text-anchor="start" x="31.78" y="-298.7" font-family="Times,serif" font-size="14.00">id :uuid</text>
</g>
<!-- Post -->
<g id="node7" class="node">
<title>Post</title>
<path fill="none" stroke="black" d="M460.78,-89C460.78,-89 695.78,-89 695.78,-89 701.78,-89 707.78,-95 707.78,-101 707.78,-101 707.78,-241.5 707.78,-241.5 707.78,-247.5 701.78,-253.5 695.78,-253.5 695.78,-253.5 460.78,-253.5 460.78,-253.5 454.78,-253.5 448.78,-247.5 448.78,-241.5 448.78,-241.5 448.78,-101 448.78,-101 448.78,-95 454.78,-89 460.78,-89"/>
<text text-anchor="middle" x="578.28" y="-236.2" font-family="Times,serif" font-size="14.00">Post</text>
<polyline fill="none" stroke="black" points="448.78,-229 707.78,-229"/>
<text text-anchor="start" x="456.78" y="-211.7" font-family="Times,serif" font-size="14.00">author_id :uuid</text>
<text text-anchor="start" x="456.78" y="-195.2" font-family="Times,serif" font-size="14.00">title :character varying</text>
<text text-anchor="start" x="456.78" y="-178.7" font-family="Times,serif" font-size="14.00">body :text</text>
<text text-anchor="start" x="456.78" y="-162.2" font-family="Times,serif" font-size="14.00">created_at :timestamp(6) without time zone</text>
<text text-anchor="start" x="456.78" y="-145.7" font-family="Times,serif" font-size="14.00">updated_at :timestamp(6) without time zone</text>
<text text-anchor="start" x="456.78" y="-129.2" font-family="Times,serif" font-size="14.00">slug :character varying</text>
<text text-anchor="start" x="456.78" y="-112.7" font-family="Times,serif" font-size="14.00">category_id :uuid</text>
<text text-anchor="start" x="456.78" y="-96.2" font-family="Times,serif" font-size="14.00">id :uuid</text>
</g>
<!-- Author&#45;&gt;Post -->
<g id="edge1" class="edge">
<title>Author&#45;&gt;Post</title>
<path fill="none" stroke="#053b7a" d="M291.33,-325.09C337.15,-303.19 388.21,-278.13 434.28,-254 436.25,-252.97 438.22,-251.93 440.21,-250.88"/>
<polygon fill="#053b7a" stroke="#053b7a" points="291.56,-324.98 280.6,-325.23 287.05,-327.13 282.54,-329.29 282.54,-329.29 282.54,-329.29 287.05,-327.13 284.47,-333.35 291.56,-324.98 291.56,-324.98"/>
<polygon fill="#053b7a" stroke="#053b7a" points="440.16,-250.9 451.1,-250.17 444.57,-248.55 448.98,-246.2 448.98,-246.2 448.98,-246.2 444.57,-248.55 446.87,-242.23 440.16,-250.9 440.16,-250.9"/>
</g>
<!-- ActiveStorage::Attachment -->
<g id="node9" class="node">
<title>ActiveStorage::Attachment</title>
<ellipse fill="none" stroke="black" cx="578.28" cy="-18" rx="112.26" ry="18"/>
<text text-anchor="middle" x="578.28" y="-12.95" font-family="Times,serif" font-size="14.00">ActiveStorage::Attachment</text>
</g>
<!-- Author&#45;&gt;ActiveStorage::Attachment -->
<g id="edge2" class="edge">
<title>Author&#45;&gt;ActiveStorage::Attachment</title>
<path fill="none" stroke="#c11b91" d="M144.87,-281.64C141.52,-207.12 143.2,-116.47 168.03,-88.5 178.55,-76.64 367.59,-48.36 485.34,-31.76"/>
<polygon fill="#c11b91" stroke="#c11b91" points="144.86,-281.59 140.85,-291.8 145.1,-286.58 145.34,-291.58 145.34,-291.58 145.34,-291.58 145.1,-286.58 149.84,-291.36 144.86,-281.59 144.86,-281.59"/>
<polygon fill="#c11b91" stroke="#c11b91" points="485.2,-31.78 495.73,-34.85 490.15,-31.09 495.1,-30.39 495.1,-30.39 495.1,-30.39 490.15,-31.09 494.47,-25.93 485.2,-31.78 485.2,-31.78"/>
<text text-anchor="middle" x="238.4" y="-166.2" font-family="Times,serif" font-size="14.00">avatar_image_attachment</text>
</g>
<!-- ActiveStorage::Blob -->
<g id="node10" class="node">
<title>ActiveStorage::Blob</title>
<ellipse fill="none" stroke="black" cx="329.28" cy="-18" rx="86.67" ry="18"/>
<text text-anchor="middle" x="329.28" y="-12.95" font-family="Times,serif" font-size="14.00">ActiveStorage::Blob</text>
</g>
<!-- Author&#45;&gt;ActiveStorage::Blob -->
<g id="edge3" class="edge">
<title>Author&#45;&gt;ActiveStorage::Blob</title>
<path fill="none" stroke="#fe3e91" d="M42.17,-283.47C36.21,-274.03 31.04,-264.17 27.03,-254 0.05,-185.57 -16.68,-147.66 27.03,-88.5 52.24,-54.38 160.95,-35.93 240.81,-26.79"/>
<polygon fill="#fe3e91" stroke="#fe3e91" points="42.08,-283.33 43.85,-294.15 44.84,-287.5 47.6,-291.66 47.6,-291.66 47.6,-291.66 44.84,-287.5 51.35,-289.18 42.08,-283.33 42.08,-283.33"/>
<polygon fill="#fe3e91" stroke="#fe3e91" points="240.46,-26.83 250.89,-30.19 245.43,-26.27 250.39,-25.72 250.39,-25.72 250.39,-25.72 245.43,-26.27 249.9,-21.25 240.46,-26.83 240.46,-26.83"/>
<text text-anchor="middle" x="79.4" y="-166.2" font-family="Times,serif" font-size="14.00">avatar_image_blob</text>
</g>
<!-- Category -->
<g id="node4" class="node">
<title>Category</title>
<path fill="none" stroke="black" d="M460.78,-332.75C460.78,-332.75 695.78,-332.75 695.78,-332.75 701.78,-332.75 707.78,-338.75 707.78,-344.75 707.78,-344.75 707.78,-435.75 707.78,-435.75 707.78,-441.75 701.78,-447.75 695.78,-447.75 695.78,-447.75 460.78,-447.75 460.78,-447.75 454.78,-447.75 448.78,-441.75 448.78,-435.75 448.78,-435.75 448.78,-344.75 448.78,-344.75 448.78,-338.75 454.78,-332.75 460.78,-332.75"/>
<text text-anchor="middle" x="578.28" y="-430.45" font-family="Times,serif" font-size="14.00">Category</text>
<polyline fill="none" stroke="black" points="448.78,-423.25 707.78,-423.25"/>
<text text-anchor="start" x="456.78" y="-405.95" font-family="Times,serif" font-size="14.00">id :uuid</text>
<text text-anchor="start" x="456.78" y="-389.45" font-family="Times,serif" font-size="14.00">name :character varying</text>
<text text-anchor="start" x="456.78" y="-372.95" font-family="Times,serif" font-size="14.00">created_at :timestamp(6) without time zone</text>
<text text-anchor="start" x="456.78" y="-356.45" font-family="Times,serif" font-size="14.00">updated_at :timestamp(6) without time zone</text>
<text text-anchor="start" x="456.78" y="-339.95" font-family="Times,serif" font-size="14.00">description :text</text>
</g>
<!-- Category&#45;&gt;Post -->
<g id="edge4" class="edge">
<title>Category&#45;&gt;Post</title>
<path fill="none" stroke="#b68415" d="M578.28,-322.92C578.28,-304.05 578.28,-283.16 578.28,-263.1"/>
<polygon fill="#b68415" stroke="#b68415" points="578.28,-322.8 573.78,-332.8 578.28,-327.8 578.28,-332.8 578.28,-332.8 578.28,-332.8 578.28,-327.8 582.78,-332.8 578.28,-322.8 578.28,-322.8"/>
<polygon fill="#b68415" stroke="#b68415" points="578.28,-263.34 582.78,-253.34 578.28,-258.34 578.28,-253.34 578.28,-253.34 578.28,-253.34 578.28,-258.34 573.78,-253.34 578.28,-263.34 578.28,-263.34"/>
</g>
<!-- Category&#45;&gt;ActiveStorage::Attachment -->
<g id="edge5" class="edge">
<title>Category&#45;&gt;ActiveStorage::Attachment</title>
<path fill="none" stroke="#135eb3" d="M663.48,-326.03C684.65,-305.61 704.62,-281.14 716.28,-254 751.38,-172.32 774.05,-124.02 719.28,-54 712.28,-45.05 692.73,-38.06 670.34,-32.76"/>
<polygon fill="#135eb3" stroke="#135eb3" points="663.55,-325.96 653.18,-329.52 659.91,-329.38 656.26,-332.8 656.26,-332.8 656.26,-332.8 659.91,-329.38 659.34,-336.08 663.55,-325.96 663.55,-325.96"/>
<polygon fill="#135eb3" stroke="#135eb3" points="670.36,-32.77 661.57,-26.21 665.48,-31.68 660.6,-30.6 660.6,-30.6 660.6,-30.6 665.48,-31.68 659.62,-34.99 670.36,-32.77 670.36,-32.77"/>
<text text-anchor="middle" x="820.9" y="-166.2" font-family="Times,serif" font-size="14.00">cover_image_attachment</text>
</g>
<!-- Category&#45;&gt;ActiveStorage::Blob -->
<g id="edge6" class="edge">
<title>Category&#45;&gt;ActiveStorage::Blob</title>
<path fill="none" stroke="#15a962" d="M440.52,-341.96C400.7,-321.31 361.65,-292.72 338.03,-254 298.01,-188.38 312.12,-92.18 322.39,-45.87"/>
<polygon fill="#15a962" stroke="#15a962" points="440.09,-341.75 447,-350.27 444.56,-344 449.02,-346.25 449.02,-346.25 449.02,-346.25 444.56,-344 451.05,-342.23 440.09,-341.75 440.09,-341.75"/>
<polygon fill="#15a962" stroke="#15a962" points="322.36,-45.99 329.01,-37.27 323.49,-41.12 324.63,-36.25 324.63,-36.25 324.63,-36.25 323.49,-41.12 320.24,-35.23 322.36,-45.99 322.36,-45.99"/>
<text text-anchor="middle" x="388.9" y="-166.2" font-family="Times,serif" font-size="14.00">cover_image_blob</text>
</g>
<!-- Comment -->
<g id="node5" class="node">
<title>Comment</title>
<path fill="none" stroke="black" d="M787.78,-308C787.78,-308 1022.78,-308 1022.78,-308 1028.78,-308 1034.78,-314 1034.78,-320 1034.78,-320 1034.78,-460.5 1034.78,-460.5 1034.78,-466.5 1028.78,-472.5 1022.78,-472.5 1022.78,-472.5 787.78,-472.5 787.78,-472.5 781.78,-472.5 775.78,-466.5 775.78,-460.5 775.78,-460.5 775.78,-320 775.78,-320 775.78,-314 781.78,-308 787.78,-308"/>
<text text-anchor="middle" x="905.28" y="-455.2" font-family="Times,serif" font-size="14.00">Comment</text>
<polyline fill="none" stroke="black" points="775.78,-448 1034.78,-448"/>
<text text-anchor="start" x="783.78" y="-430.7" font-family="Times,serif" font-size="14.00">dislike :integer</text>
<text text-anchor="start" x="783.78" y="-414.2" font-family="Times,serif" font-size="14.00">user_id :uuid</text>
<text text-anchor="start" x="783.78" y="-397.7" font-family="Times,serif" font-size="14.00">post_id :uuid</text>
<text text-anchor="start" x="783.78" y="-381.2" font-family="Times,serif" font-size="14.00">body :text</text>
<text text-anchor="start" x="783.78" y="-364.7" font-family="Times,serif" font-size="14.00">created_at :timestamp(6) without time zone</text>
<text text-anchor="start" x="783.78" y="-348.2" font-family="Times,serif" font-size="14.00">updated_at :timestamp(6) without time zone</text>
<text text-anchor="start" x="783.78" y="-331.7" font-family="Times,serif" font-size="14.00">like :integer</text>
<text text-anchor="start" x="783.78" y="-315.2" font-family="Times,serif" font-size="14.00">id :uuid</text>
</g>
<!-- Comment&#45;&gt;Post -->
<g id="edge8" class="edge">
<title>Comment&#45;&gt;Post</title>
<path fill="none" stroke="#caad12" d="M774.8,-302.66C753.1,-288.27 730.6,-273.33 708.9,-258.93"/>
<polygon fill="#caad12" stroke="#caad12" points="774.72,-302.61 780.56,-311.89 778.89,-305.37 783.05,-308.14 783.05,-308.14 783.05,-308.14 778.89,-305.37 785.54,-304.39 774.72,-302.61 774.72,-302.61"/>
<polygon fill="#caad12" stroke="#caad12" points="708.96,-258.97 703.12,-249.69 704.8,-256.21 700.63,-253.44 700.63,-253.44 700.63,-253.44 704.8,-256.21 698.14,-257.19 708.96,-258.97 708.96,-258.97"/>
</g>
<!-- User -->
<g id="node8" class="node">
<title>User</title>
<path fill="none" stroke="black" d="M911.28,-89C911.28,-89 1215.28,-89 1215.28,-89 1221.28,-89 1227.28,-95 1227.28,-101 1227.28,-101 1227.28,-241.5 1227.28,-241.5 1227.28,-247.5 1221.28,-253.5 1215.28,-253.5 1215.28,-253.5 911.28,-253.5 911.28,-253.5 905.28,-253.5 899.28,-247.5 899.28,-241.5 899.28,-241.5 899.28,-101 899.28,-101 899.28,-95 905.28,-89 911.28,-89"/>
<text text-anchor="middle" x="1063.28" y="-236.2" font-family="Times,serif" font-size="14.00">User</text>
<polyline fill="none" stroke="black" points="899.28,-229 1227.28,-229"/>
<text text-anchor="start" x="907.28" y="-211.7" font-family="Times,serif" font-size="14.00">updated_at :timestamp(6) without time zone</text>
<text text-anchor="start" x="907.28" y="-195.2" font-family="Times,serif" font-size="14.00">email :character varying</text>
<text text-anchor="start" x="907.28" y="-178.7" font-family="Times,serif" font-size="14.00">encrypted_password :character varying</text>
<text text-anchor="start" x="907.28" y="-162.2" font-family="Times,serif" font-size="14.00">reset_password_token :character varying</text>
<text text-anchor="start" x="907.28" y="-145.7" font-family="Times,serif" font-size="14.00">reset_password_sent_at :timestamp(6) without time zone</text>
<text text-anchor="start" x="907.28" y="-129.2" font-family="Times,serif" font-size="14.00">remember_created_at :timestamp(6) without time zone</text>
<text text-anchor="start" x="907.28" y="-112.7" font-family="Times,serif" font-size="14.00">created_at :timestamp(6) without time zone</text>
<text text-anchor="start" x="907.28" y="-96.2" font-family="Times,serif" font-size="14.00">id :uuid</text>
</g>
<!-- Comment&#45;&gt;User -->
<g id="edge7" class="edge">
<title>Comment&#45;&gt;User</title>
<path fill="none" stroke="#cbc1bc" d="M970.2,-300.09C979.55,-287.25 989.17,-274.03 998.51,-261.2"/>
<polygon fill="#cbc1bc" stroke="#cbc1bc" points="970.22,-300.05 960.7,-305.49 967.28,-304.1 964.34,-308.14 964.34,-308.14 964.34,-308.14 967.28,-304.1 967.98,-310.79 970.22,-300.05 970.22,-300.05"/>
<polygon fill="#cbc1bc" stroke="#cbc1bc" points="998.41,-261.35 1007.93,-255.91 1001.35,-257.31 1004.29,-253.26 1004.29,-253.26 1004.29,-253.26 1001.35,-257.31 1000.66,-250.61 998.41,-261.35 998.41,-261.35"/>
</g>
<!-- CommentLikeDislike -->
<g id="node6" class="node">
<title>CommentLikeDislike</title>
<path fill="none" stroke="black" d="M900.78,-560C900.78,-560 1135.78,-560 1135.78,-560 1141.78,-560 1147.78,-566 1147.78,-572 1147.78,-572 1147.78,-663 1147.78,-663 1147.78,-669 1141.78,-675 1135.78,-675 1135.78,-675 900.78,-675 900.78,-675 894.78,-675 888.78,-669 888.78,-663 888.78,-663 888.78,-572 888.78,-572 888.78,-566 894.78,-560 900.78,-560"/>
<text text-anchor="middle" x="1018.28" y="-657.7" font-family="Times,serif" font-size="14.00">CommentLikeDislike</text>
<polyline fill="none" stroke="black" points="888.78,-650.5 1147.78,-650.5"/>
<text text-anchor="start" x="896.78" y="-633.2" font-family="Times,serif" font-size="14.00">id :uuid</text>
<text text-anchor="start" x="896.78" y="-616.7" font-family="Times,serif" font-size="14.00">comment_id :uuid</text>
<text text-anchor="start" x="896.78" y="-600.2" font-family="Times,serif" font-size="14.00">user_id :uuid</text>
<text text-anchor="start" x="896.78" y="-583.7" font-family="Times,serif" font-size="14.00">created_at :timestamp(6) without time zone</text>
<text text-anchor="start" x="896.78" y="-567.2" font-family="Times,serif" font-size="14.00">updated_at :timestamp(6) without time zone</text>
</g>
<!-- CommentLikeDislike&#45;&gt;Comment -->
<g id="edge9" class="edge">
<title>CommentLikeDislike&#45;&gt;Comment</title>
<path fill="none" stroke="#aeaa9c" d="M985.58,-551.33C974.61,-529.44 962.16,-504.63 950.4,-481.19"/>
<polygon fill="#aeaa9c" stroke="#aeaa9c" points="985.57,-551.3 986.03,-562.26 987.81,-555.77 990.06,-560.24 990.06,-560.24 990.06,-560.24 987.81,-555.77 994.08,-558.22 985.57,-551.3 985.57,-551.3"/>
<polygon fill="#aeaa9c" stroke="#aeaa9c" points="950.41,-481.22 949.95,-470.26 948.17,-476.75 945.93,-472.28 945.93,-472.28 945.93,-472.28 948.17,-476.75 941.91,-474.29 950.41,-481.22 950.41,-481.22"/>
</g>
<!-- CommentLikeDislike&#45;&gt;User -->
<g id="edge10" class="edge">
<title>CommentLikeDislike&#45;&gt;User</title>
<path fill="none" stroke="#4ace44" d="M1033.65,-550.49C1037.69,-530.95 1041.65,-509.45 1044.28,-489.5 1054.28,-413.53 1059.02,-326.63 1061.27,-263.01"/>
<polygon fill="#4ace44" stroke="#4ace44" points="1033.66,-550.42 1027.19,-559.28 1032.63,-555.32 1031.59,-560.21 1031.59,-560.21 1031.59,-560.21 1032.63,-555.32 1036,-561.14 1033.66,-550.42 1033.66,-550.42"/>
<polygon fill="#4ace44" stroke="#4ace44" points="1061.25,-263.39 1066.09,-253.55 1061.42,-258.39 1061.59,-253.4 1061.59,-253.4 1061.59,-253.4 1061.42,-258.39 1057.1,-253.24 1061.25,-263.39 1061.25,-263.39"/>
</g>
<!-- Post&#45;&gt;ActiveStorage::Attachment -->
<g id="edge11" class="edge">
<title>Post&#45;&gt;ActiveStorage::Attachment</title>
<path fill="none" stroke="#b54dbf" d="M578.28,-79.49C578.28,-67.35 578.28,-55.76 578.28,-46.03"/>
<polygon fill="#b54dbf" stroke="#b54dbf" points="578.28,-79.31 573.78,-89.31 578.28,-84.31 578.28,-89.31 578.28,-89.31 578.28,-89.31 578.28,-84.31 582.78,-89.31 578.28,-79.31 578.28,-79.31"/>
<polygon fill="#b54dbf" stroke="#b54dbf" points="578.28,-46.26 582.78,-36.26 578.28,-41.26 578.28,-36.26 578.28,-36.26 578.28,-36.26 578.28,-41.26 573.78,-36.26 578.28,-46.26 578.28,-46.26"/>
<text text-anchor="middle" x="646.9" y="-57.2" font-family="Times,serif" font-size="14.00">cover_image_attachment</text>
</g>
<!-- Post&#45;&gt;ActiveStorage::Blob -->
<g id="edge12" class="edge">
<title>Post&#45;&gt;ActiveStorage::Blob</title>
<path fill="none" stroke="#11d3c0" d="M440.84,-86.76C412.68,-69.66 385.42,-53.1 364.89,-40.63"/>
<polygon fill="#11d3c0" stroke="#11d3c0" points="440.49,-86.55 446.7,-95.59 444.77,-89.15 449.04,-91.75 449.04,-91.75 449.04,-91.75 444.77,-89.15 451.38,-87.9 440.49,-86.55 440.49,-86.55"/>
<polygon fill="#11d3c0" stroke="#11d3c0" points="365.07,-40.74 358.86,-31.7 360.8,-38.14 356.52,-35.55 356.52,-35.55 356.52,-35.55 360.8,-38.14 354.19,-39.39 365.07,-40.74 365.07,-40.74"/>
<text text-anchor="middle" x="460.9" y="-57.2" font-family="Times,serif" font-size="14.00">cover_image_blob</text>
</g>
</g>
</svg>
