<?xml version="1.0" encoding="UTF-8" standalone="no"?>
<!DOCTYPE svg PUBLIC "-//W3C//DTD SVG 1.1//EN"
 "http://www.w3.org/Graphics/SVG/1.1/DTD/svg11.dtd">
<!-- Generated by graphviz version 8.1.0 (20230707.0739)
 -->
<!-- Title: models_diagram Pages: 1 -->
<svg width="1453pt" height="498pt"
 viewBox="0.00 0.00 1453.00 497.50" xmlns="http://www.w3.org/2000/svg" xmlns:xlink="http://www.w3.org/1999/xlink">
<g id="graph0" class="graph" transform="scale(1 1) rotate(0) translate(4 493.5)">
<title>models_diagram</title>
<polygon fill="none" stroke="none" points="-4,4 -4,-493.5 1449,-493.5 1449,4 -4,4"/>
<!-- Admin -->
<g id="node1" class="node">
<title>Admin</title>
<path fill="none" stroke="black" d="M12,-299.75C12,-299.75 316,-299.75 316,-299.75 322,-299.75 328,-305.75 328,-311.75 328,-311.75 328,-468.75 328,-468.75 328,-474.75 322,-480.75 316,-480.75 316,-480.75 12,-480.75 12,-480.75 6,-480.75 0,-474.75 0,-468.75 0,-468.75 0,-311.75 0,-311.75 0,-305.75 6,-299.75 12,-299.75"/>
<text text-anchor="middle" x="164" y="-463.45" font-family="Times,serif" font-size="14.00">Admin</text>
<polyline fill="none" stroke="black" points="0,-456.25 328,-456.25"/>
<text text-anchor="start" x="8" y="-438.95" font-family="Times,serif" font-size="14.00">name :character varying</text>
<text text-anchor="start" x="8" y="-422.45" font-family="Times,serif" font-size="14.00">email :character varying</text>
<text text-anchor="start" x="8" y="-405.95" font-family="Times,serif" font-size="14.00">encrypted_password :character varying</text>
<text text-anchor="start" x="8" y="-389.45" font-family="Times,serif" font-size="14.00">reset_password_token :character varying</text>
<text text-anchor="start" x="8" y="-372.95" font-family="Times,serif" font-size="14.00">reset_password_sent_at :timestamp(6) without time zone</text>
<text text-anchor="start" x="8" y="-356.45" font-family="Times,serif" font-size="14.00">remember_created_at :timestamp(6) without time zone</text>
<text text-anchor="start" x="8" y="-339.95" font-family="Times,serif" font-size="14.00">created_at :timestamp(6) without time zone</text>
<text text-anchor="start" x="8" y="-323.45" font-family="Times,serif" font-size="14.00">updated_at :timestamp(6) without time zone</text>
<text text-anchor="start" x="8" y="-306.95" font-family="Times,serif" font-size="14.00">id :uuid</text>
</g>
<!-- ApplicationRecord -->
<g id="node2" class="node">
<title>ApplicationRecord</title>
<ellipse fill="none" stroke="black" cx="427" cy="-390.25" rx="81.04" ry="18"/>
<text text-anchor="middle" x="427" y="-385.2" font-family="Times,serif" font-size="14.00">ApplicationRecord</text>
</g>
<!-- Author -->
<g id="node3" class="node">
<title>Author</title>
<path fill="none" stroke="black" d="M851.5,-291.5C851.5,-291.5 1086.5,-291.5 1086.5,-291.5 1092.5,-291.5 1098.5,-297.5 1098.5,-303.5 1098.5,-303.5 1098.5,-477 1098.5,-477 1098.5,-483 1092.5,-489 1086.5,-489 1086.5,-489 851.5,-489 851.5,-489 845.5,-489 839.5,-483 839.5,-477 839.5,-477 839.5,-303.5 839.5,-303.5 839.5,-297.5 845.5,-291.5 851.5,-291.5"/>
<text text-anchor="middle" x="969" y="-471.7" font-family="Times,serif" font-size="14.00">Author</text>
<polyline fill="none" stroke="black" points="839.5,-464.5 1098.5,-464.5"/>
<text text-anchor="start" x="847.5" y="-447.2" font-family="Times,serif" font-size="14.00">updated_at :timestamp(6) without time zone</text>
<text text-anchor="start" x="847.5" y="-430.7" font-family="Times,serif" font-size="14.00">name :character varying</text>
<text text-anchor="start" x="847.5" y="-414.2" font-family="Times,serif" font-size="14.00">description :character varying</text>
<text text-anchor="start" x="847.5" y="-397.7" font-family="Times,serif" font-size="14.00">facebook_profile_url :character varying</text>
<text text-anchor="start" x="847.5" y="-381.2" font-family="Times,serif" font-size="14.00">instagram_profile_url :character varying</text>
<text text-anchor="start" x="847.5" y="-364.7" font-family="Times,serif" font-size="14.00">twitter_profile_url :character varying</text>
<text text-anchor="start" x="847.5" y="-348.2" font-family="Times,serif" font-size="14.00">linkedin_profile_url :character varying</text>
<text text-anchor="start" x="847.5" y="-331.7" font-family="Times,serif" font-size="14.00">youtube_profile_url :character varying</text>
<text text-anchor="start" x="847.5" y="-315.2" font-family="Times,serif" font-size="14.00">created_at :timestamp(6) without time zone</text>
<text text-anchor="start" x="847.5" y="-298.7" font-family="Times,serif" font-size="14.00">id :uuid</text>
</g>
<!-- Post -->
<g id="node5" class="node">
<title>Post</title>
<path fill="none" stroke="black" d="M851.5,-89C851.5,-89 1086.5,-89 1086.5,-89 1092.5,-89 1098.5,-95 1098.5,-101 1098.5,-101 1098.5,-241.5 1098.5,-241.5 1098.5,-247.5 1092.5,-253.5 1086.5,-253.5 1086.5,-253.5 851.5,-253.5 851.5,-253.5 845.5,-253.5 839.5,-247.5 839.5,-241.5 839.5,-241.5 839.5,-101 839.5,-101 839.5,-95 845.5,-89 851.5,-89"/>
<text text-anchor="middle" x="969" y="-236.2" font-family="Times,serif" font-size="14.00">Post</text>
<polyline fill="none" stroke="black" points="839.5,-229 1098.5,-229"/>
<text text-anchor="start" x="847.5" y="-211.7" font-family="Times,serif" font-size="14.00">author_id :uuid</text>
<text text-anchor="start" x="847.5" y="-195.2" font-family="Times,serif" font-size="14.00">title :character varying</text>
<text text-anchor="start" x="847.5" y="-178.7" font-family="Times,serif" font-size="14.00">body :text</text>
<text text-anchor="start" x="847.5" y="-162.2" font-family="Times,serif" font-size="14.00">created_at :timestamp(6) without time zone</text>
<text text-anchor="start" x="847.5" y="-145.7" font-family="Times,serif" font-size="14.00">updated_at :timestamp(6) without time zone</text>
<text text-anchor="start" x="847.5" y="-129.2" font-family="Times,serif" font-size="14.00">slug :character varying</text>
<text text-anchor="start" x="847.5" y="-112.7" font-family="Times,serif" font-size="14.00">category_id :uuid</text>
<text text-anchor="start" x="847.5" y="-96.2" font-family="Times,serif" font-size="14.00">id :uuid</text>
</g>
<!-- Author&#45;&gt;Post -->
<g id="edge1" class="edge">
<title>Author&#45;&gt;Post</title>
<path fill="none" stroke="#0fdf59" d="M969,-281.59C969,-275.32 969,-269.04 969,-262.85"/>
<polygon fill="#0fdf59" stroke="#0fdf59" points="969,-281.54 964.5,-291.54 969,-286.54 969,-291.54 969,-291.54 969,-291.54 969,-286.54 973.5,-291.54 969,-281.54 969,-281.54"/>
<polygon fill="#0fdf59" stroke="#0fdf59" points="969,-263.19 973.5,-253.19 969,-258.19 969,-253.19 969,-253.19 969,-253.19 969,-258.19 964.5,-253.19 969,-263.19 969,-263.19"/>
</g>
<!-- ActiveStorage::Attachment -->
<g id="node7" class="node">
<title>ActiveStorage::Attachment</title>
<ellipse fill="none" stroke="black" cx="788" cy="-18" rx="112.26" ry="18"/>
<text text-anchor="middle" x="788" y="-12.95" font-family="Times,serif" font-size="14.00">ActiveStorage::Attachment</text>
</g>
<!-- Author&#45;&gt;ActiveStorage::Attachment -->
<g id="edge2" class="edge">
<title>Author&#45;&gt;ActiveStorage::Attachment</title>
<path fill="none" stroke="#3f6368" d="M830.9,-308.45C818.89,-302.29 806.81,-296.38 795,-291 750.26,-270.61 719.11,-294.16 690.75,-254 648.32,-193.92 657.1,-153.91 690.75,-88.5 701.58,-67.44 722.08,-51.35 741.48,-39.98"/>
<polygon fill="#3f6368" stroke="#3f6368" points="830.75,-308.38 837.56,-316.98 835.19,-310.68 839.63,-312.99 839.63,-312.99 839.63,-312.99 835.19,-310.68 841.7,-308.99 830.75,-308.38 830.75,-308.38"/>
<polygon fill="#3f6368" stroke="#3f6368" points="741.24,-40.11 752.17,-39.17 745.61,-37.67 749.98,-35.24 749.98,-35.24 749.98,-35.24 745.61,-37.67 747.79,-31.31 741.24,-40.11 741.24,-40.11"/>
<text text-anchor="middle" x="761.12" y="-166.2" font-family="Times,serif" font-size="14.00">avatar_image_attachment</text>
</g>
<!-- ActiveStorage::Blob -->
<g id="node8" class="node">
<title>ActiveStorage::Blob</title>
<ellipse fill="none" stroke="black" cx="1040" cy="-18" rx="86.67" ry="18"/>
<text text-anchor="middle" x="1040" y="-12.95" font-family="Times,serif" font-size="14.00">ActiveStorage::Blob</text>
</g>
<!-- Author&#45;&gt;ActiveStorage::Blob -->
<g id="edge3" class="edge">
<title>Author&#45;&gt;ActiveStorage::Blob</title>
<path fill="none" stroke="#eddb8d" d="M1090.42,-283.93C1097.19,-274.38 1103.18,-264.38 1108,-254 1145.53,-173.22 1169.93,-128.44 1121,-54 1116.46,-47.1 1110.25,-41.55 1103.26,-37.1"/>
<polygon fill="#eddb8d" stroke="#eddb8d" points="1090.52,-283.81 1080.95,-289.17 1087.54,-287.83 1084.57,-291.85 1084.57,-291.85 1084.57,-291.85 1087.54,-287.83 1088.19,-294.52 1090.52,-283.81 1090.52,-283.81"/>
<polygon fill="#eddb8d" stroke="#eddb8d" points="1103.49,-37.22 1096.95,-28.42 1099.12,-34.79 1094.75,-32.35 1094.75,-32.35 1094.75,-32.35 1099.12,-34.79 1092.56,-36.28 1103.49,-37.22 1103.49,-37.22"/>
<text text-anchor="middle" x="1200.12" y="-166.2" font-family="Times,serif" font-size="14.00">avatar_image_blob</text>
</g>
<!-- Category -->
<g id="node4" class="node">
<title>Category</title>
<path fill="none" stroke="black" d="M538.5,-341C538.5,-341 773.5,-341 773.5,-341 779.5,-341 785.5,-347 785.5,-353 785.5,-353 785.5,-427.5 785.5,-427.5 785.5,-433.5 779.5,-439.5 773.5,-439.5 773.5,-439.5 538.5,-439.5 538.5,-439.5 532.5,-439.5 526.5,-433.5 526.5,-427.5 526.5,-427.5 526.5,-353 526.5,-353 526.5,-347 532.5,-341 538.5,-341"/>
<text text-anchor="middle" x="656" y="-422.2" font-family="Times,serif" font-size="14.00">Category</text>
<polyline fill="none" stroke="black" points="526.5,-415 785.5,-415"/>
<text text-anchor="start" x="534.5" y="-397.7" font-family="Times,serif" font-size="14.00">id :uuid</text>
<text text-anchor="start" x="534.5" y="-381.2" font-family="Times,serif" font-size="14.00">name :character varying</text>
<text text-anchor="start" x="534.5" y="-364.7" font-family="Times,serif" font-size="14.00">created_at :timestamp(6) without time zone</text>
<text text-anchor="start" x="534.5" y="-348.2" font-family="Times,serif" font-size="14.00">updated_at :timestamp(6) without time zone</text>
</g>
<!-- Category&#45;&gt;Post -->
<g id="edge4" class="edge">
<title>Category&#45;&gt;Post</title>
<path fill="none" stroke="#7089cf" d="M733.45,-335.56C766.84,-312.4 806.75,-284.74 844.14,-258.81"/>
<polygon fill="#7089cf" stroke="#7089cf" points="733.68,-335.39 722.9,-337.39 729.57,-338.24 725.46,-341.09 725.46,-341.09 725.46,-341.09 729.57,-338.24 728.03,-344.79 733.68,-335.39 733.68,-335.39"/>
<polygon fill="#7089cf" stroke="#7089cf" points="843.86,-259.01 854.64,-257.01 847.97,-256.16 852.08,-253.31 852.08,-253.31 852.08,-253.31 847.97,-256.16 849.51,-249.61 843.86,-259.01 843.86,-259.01"/>
</g>
<!-- Post&#45;&gt;ActiveStorage::Attachment -->
<g id="edge5" class="edge">
<title>Post&#45;&gt;ActiveStorage::Attachment</title>
<path fill="none" stroke="#eff93d" d="M864.26,-82.73C846.36,-67.77 829.22,-53.44 815.74,-42.18"/>
<polygon fill="#eff93d" stroke="#eff93d" points="864.2,-82.68 868.99,-92.54 868.04,-85.88 871.88,-89.09 871.88,-89.09 871.88,-89.09 868.04,-85.88 874.76,-85.64 864.2,-82.68 864.2,-82.68"/>
<polygon fill="#eff93d" stroke="#eff93d" points="815.92,-42.33 811.13,-32.47 812.08,-39.13 808.25,-35.92 808.25,-35.92 808.25,-35.92 812.08,-39.13 805.36,-39.37 815.92,-42.33 815.92,-42.33"/>
<text text-anchor="middle" x="914.62" y="-57.2" font-family="Times,serif" font-size="14.00">cover_image_attachment</text>
</g>
<!-- Post&#45;&gt;ActiveStorage::Blob -->
<g id="edge6" class="edge">
<title>Post&#45;&gt;ActiveStorage::Blob</title>
<path fill="none" stroke="#f275e2" d="M1007.14,-80.13C1011.26,-71.24 1015.5,-62.4 1019.75,-54 1021.29,-50.96 1022.96,-47.82 1024.68,-44.72"/>
<polygon fill="#f275e2" stroke="#f275e2" points="1007.22,-79.94 998.97,-87.16 1005.14,-84.49 1003.06,-89.03 1003.06,-89.03 1003.06,-89.03 1005.14,-84.49 1007.15,-90.91 1007.22,-79.94 1007.22,-79.94"/>
<polygon fill="#f275e2" stroke="#f275e2" points="1024.57,-44.92 1033.42,-38.46 1027.04,-40.58 1029.51,-36.23 1029.51,-36.23 1029.51,-36.23 1027.04,-40.58 1025.6,-34.01 1024.57,-44.92 1024.57,-44.92"/>
<text text-anchor="middle" x="1069.62" y="-57.2" font-family="Times,serif" font-size="14.00">cover_image_blob</text>
</g>
<!-- User -->
<g id="node6" class="node">
<title>User</title>
<path fill="none" stroke="black" d="M1129,-308C1129,-308 1433,-308 1433,-308 1439,-308 1445,-314 1445,-320 1445,-320 1445,-460.5 1445,-460.5 1445,-466.5 1439,-472.5 1433,-472.5 1433,-472.5 1129,-472.5 1129,-472.5 1123,-472.5 1117,-466.5 1117,-460.5 1117,-460.5 1117,-320 1117,-320 1117,-314 1123,-308 1129,-308"/>
<text text-anchor="middle" x="1281" y="-455.2" font-family="Times,serif" font-size="14.00">User</text>
<polyline fill="none" stroke="black" points="1117,-448 1445,-448"/>
<text text-anchor="start" x="1125" y="-430.7" font-family="Times,serif" font-size="14.00">updated_at :timestamp(6) without time zone</text>
<text text-anchor="start" x="1125" y="-414.2" font-family="Times,serif" font-size="14.00">email :character varying</text>
<text text-anchor="start" x="1125" y="-397.7" font-family="Times,serif" font-size="14.00">encrypted_password :character varying</text>
<text text-anchor="start" x="1125" y="-381.2" font-family="Times,serif" font-size="14.00">reset_password_token :character varying</text>
<text text-anchor="start" x="1125" y="-364.7" font-family="Times,serif" font-size="14.00">reset_password_sent_at :timestamp(6) without time zone</text>
<text text-anchor="start" x="1125" y="-348.2" font-family="Times,serif" font-size="14.00">remember_created_at :timestamp(6) without time zone</text>
<text text-anchor="start" x="1125" y="-331.7" font-family="Times,serif" font-size="14.00">created_at :timestamp(6) without time zone</text>
<text text-anchor="start" x="1125" y="-315.2" font-family="Times,serif" font-size="14.00">id :uuid</text>
</g>
</g>
</svg>
